<?xml version="1.0" encoding="utf-8"?>
<!-- Generator: Adobe Illustrator 24.3.0, SVG Export Plug-In . SVG Version: 6.00 Build 0)  -->
<svg version="1.1" id="Слой_1" xmlns="http://www.w3.org/2000/svg" xmlns:xlink="http://www.w3.org/1999/xlink" x="0px" y="0px"
	 viewBox="0 0 392.9 487.1" style="enable-background:new 0 0 392.9 487.1;" xml:space="preserve">
<style type="text/css">
	.st0{fill:#FFFFFF;stroke:#13017C;stroke-miterlimit:10;}
	.st1{fill:none;stroke:#1B99C4;stroke-width:0.9973;stroke-miterlimit:10;}
	.st2{fill:#2398BF;}
	.st3{fill:none;stroke:#1B99C4;stroke-miterlimit:10;}
	.st4{fill:none;stroke:#13017C;stroke-miterlimit:10;}
	.st5{font-family:'ArialMT';}
	.st6{font-size:6.0905px;}
	.st7{font-size:5.5467px;}
	.st8{font-size:5.547px;}
	.st9{font-size:6px;}
	.st10{fill:#E5E5E5;stroke:#000000;stroke-linecap:round;stroke-miterlimit:10;}
	.st11{font-size:7.3281px;}
	.st12{font-size:7px;}
</style>
<g id="Слой_2_1_">
</g>
<g id="Слой_1_1_">
	<polygon class="st0" points="188.5,0 242,5.2 298.7,10.7 338.7,79.1 352,228.3 352,288.9 392.9,301.3 388.5,321.8 344.9,427.5 
		202.2,487.1 33.8,428.4 33.8,256.9 0,62.2 8.9,11.6 	"/>
	<path class="st1" d="M253.7,301c6.8,2.3,12.8,4.3,18.8,7.3c7,3,14,0,19-5c21-4,32-23.9,46.9-37.9c4,2,7.1,3.8,13.4-0.9"/>
	<polygon class="st2" points="249.8,5.9 254.2,10.4 244.6,20 264.6,20 258.1,33.2 263.4,49.5 256.6,52.1 254.6,72 261,81.8 
		270.2,81.8 266.1,88.3 278.2,103.1 283.3,93 278.8,76.7 283.3,68.7 289.5,67.3 300.5,78.5 338.9,81.1 338.7,79.1 298.7,10.7 	"/>
	<path class="st3" d="M178.5,337.5c6.1-14.2,12.1-28.2,22.1-40.2c1-1,4-2,6-2c14,0,27,1,41.2,4.3"/>
	<path class="st3" d="M34.3,264.6c4.2,1.7,10.2,0.7,13.2,4.7c3,5,8,7,11,11c4,5,7,11,7,17c-1,4-1,7-1,11c0,2,1,4,2,6c1,1,2,2,3,3
		c3,7,7,16,15,16c11,1,22-1,34-3c3,0,5-1,8,1c6,4,12,9,19,10c9,2,18,1,26.4-2.1"/>
	<polyline class="st4" points="12.8,11.3 20.4,59.6 110.2,53.6 100.1,5.7 105.8,5.3 115,53.6 198.5,47.7 186.1,0 192.1,0.4 
		204.5,49.5 231.4,197.6 293.9,188.4 	"/>
	<polyline class="st4" points="388.1,307.5 375.7,305.8 361.8,307.3 257.2,326.5 244.1,253.9 332.1,237.6 352,228.3 351.6,224.3 
		328.9,232.6 242.4,248 233.2,203.3 293.9,194.7 	"/>
	<polygon class="st4" points="74.7,428.1 120.3,430.2 189.3,428.1 184,385.8 132,390.5 109.9,387.9 100.4,389.3 83,387.5 77,390.2 
		74.7,399.1 76.8,410.1 	"/>
	<polygon class="st4" points="21,64 37.9,194.7 40.9,203.6 91.1,195.8 124.8,187 136.3,187 134.8,172.4 110.8,59.6 	"/>
	<polygon class="st4" points="198.8,53.3 226.4,197.6 140.8,210.4 140.8,190.5 139.6,172.4 116.8,59.6 	"/>
	<path class="st4" d="M93.1,228.3c2.2,7.7,8.1,22.6,6.1,18.5c-0.4-0.8,8.2,20.8,17.4,25c3.8,1.7,7.2,1.7,12.1,1.8
		c2,0,24.7-4.9,22.7-4.7c-6.3,0.4-12.7-12.6-11.9-13.6l-5.3-26.8l2.1-36h-14.1c-10.1,2.6-18.2,4.6-28.3,7.2L93.1,228.3z"/>
	<polygon class="st4" points="140.8,216 227.9,203.6 237.3,249.5 173.3,266.1 156.8,267.8 147.6,258.7 143.1,246.8 140.8,228.3 	"/>
	<polygon class="st4" points="160.3,271.7 183.4,355.5 194.7,347.9 243.3,328 253.3,326.5 238.5,255.1 173.3,271.4 	"/>
	<polygon class="st4" points="184.6,363.3 185.8,373.6 189,383.4 194.1,428.1 270.7,425.3 253.3,331.9 243.6,333.9 196.5,354.1 	"/>
	<polygon class="st4" points="259.6,329.8 275.9,425.8 323.6,424.3 331.9,422.2 334.2,414.8 321.8,333 320.6,319.1 	"/>
	<text transform="matrix(1.0317 -0.1531 0.1468 0.9892 166.4008 211.0341)" class="st5 st6">Садовая улица</text>
	<text transform="matrix(0.212 0.7853 -0.9654 0.2606 167.448 310.577)" class="st5 st7">Первомайская улица</text>
	<text transform="matrix(0.1673 0.796 -0.9786 0.2057 123.4192 112.1935)" class="st5 st8">Первомайская улица</text>
	<text transform="matrix(0.2057 0.9786 -0.9786 0.2057 234.5468 228.2747)" class="st5 st9">Октябрьская улица</text>
	<text transform="matrix(0.9786 -0.2057 0.2057 0.9786 180.1735 267.8484)" class="st5 st9">ул. 40 лет Победы</text>
	<text transform="matrix(0.9084 -0.4181 0.4181 0.9084 198.3965 351.9697)" class="st5 st9">ул. Ломоносова</text>
	<text transform="matrix(1 0 0 1 80.4775 433.9867)" class="st5 st9">Заречная ул.</text>
	<circle class="st10" cx="239.5" cy="75.6" r="4.7"/>
	<circle class="st10" cx="258" cy="259.8" r="4.7"/>
	<circle class="st10" cx="86.4" cy="421.1" r="4.7"/>
	<circle class="st10" cx="258" cy="342.2" r="4.7"/>
	<circle class="st10" cx="117.6" cy="223.6" r="4.7"/>
	<circle class="st10" cx="55.4" cy="278.2" r="4.7"/>
	<polyline class="st4" points="45.7,432.6 92.8,435.3 189.9,433.8 196.5,485.1 202.2,487.1 195,434.1 275.3,429.9 323,429.9 
		333.9,427.5 344.9,427.5 347.2,421.9 338.1,421.9 339.9,415.7 328.6,340.7 325.6,319.4 359.4,312.6 374.8,311.1 386.4,312.6 	"/>
	<line class="st4" x1="196.5" y1="485.1" x2="189.9" y2="433.8"/>
	<path class="st4" d="M33.8,428.4"/>
	<path class="st4" d="M14.8,59.9L0,62.2l0.7,4.2l14.1-1.6l17.8,128.6l4.4,15.4l52.4-7.7l-2.1,11l2.1,20.1l4.4,16l14.8,23.4l9.5,5.6
		l15.7,1.5l21-5.9l12.4,42.7v8.3l11.3,32v9.8l3.6,14.2l-49.8,4.7l-20.7-2.7l-16.3,1.2H80.6l-5.6,1.5l-3.3,3.3l-3,10.1v3.6l2.4,6.8
		v11l-1.5,8.9l-35.8-3.3c11.9,1.1,23.9,2.2,35.9,3.3l1.5-8.9v-11l-2.4-6.8v-3.6l3-10.1l3.3-3.3l5.6-1.5h14.8l16.3-1.2l20.7,2.7
		l49.8-4.7l-3.6-14.2v-9.8l-11.3-32v-8.3L155,272.9l-21,5.9l-15.7-1.5l-9.5-5.6l-14.8-23.4L90,234.1l-0.5-1.8
		c-0.7-6.7-1.4-13.4-2.1-20.1c0.7-3.6,1.4-7.3,2.1-11c-17.5,2.6-35,5.1-52.4,7.7l-4.4-15.4L14.8,64.9L0.7,66.4L0,62.2L14.8,59.9
		l-7-42.3L14.8,59.9z"/>
	<text transform="matrix(1 0 0 1 220.8362 88.3959)" class="st5 st11">Музей соли</text>
	<text transform="matrix(1 0 0 1 227.2962 97.1859)" class="st5 st11">(амбар)</text>
	<text transform="matrix(1 0 0 1 253.3379 273.4784)" class="st5 st11">Краеведческий музей</text>
	<text transform="matrix(1 0 0 1 264.401 346.8852)" class="st5 st11">Нёнокские </text>
	<text transform="matrix(1 0 0 1 266.811 355.6752)" class="st5 st11">кружания</text>
	<text transform="matrix(1 0 0 1 50.7452 291.9501)" class="st5 st12">Руины старой солеварни</text>
	<text transform="matrix(1 0 0 1 100.2237 235.8546)" class="st5 st12">Нёнокский </text>
	<text transform="matrix(1 0 0 1 107.5437 244.2546)" class="st5 st12">погост</text>
	<text transform="matrix(1 0 0 1 92.8451 416.4409)" class="st5 st12">Холм</text>
	<polygon class="st4" points="338.9,81.1 300.5,78.5 290.2,67.3 283.3,68.7 278.8,76.7 283.3,93 278.2,103.1 266.1,88.3 270.2,81.8 
		261,81.8 254.6,72 256.6,52.1 263.4,49.5 258.1,33.2 264.6,20 244.6,20 254.2,10.4 249.8,5.9 298.7,10.7 338.7,79.1 	"/>
</g>
</svg>
