<?xml version="1.0" encoding="utf-8"?>
<!-- Generator: Adobe Illustrator 24.3.0, SVG Export Plug-In . SVG Version: 6.00 Build 0)  -->
<svg version="1.1" id="Слой_1" xmlns="http://www.w3.org/2000/svg" xmlns:xlink="http://www.w3.org/1999/xlink" x="0px" y="0px"
	 viewBox="0 0 400 496.5" style="enable-background:new 0 0 400 496.5;" xml:space="preserve">
<style type="text/css">
	.st0{fill:#FFFFFF;stroke:#BEBEBE;stroke-miterlimit:10;}
	.st1{fill:none;stroke:#93B1CB;stroke-width:0.9973;stroke-miterlimit:10;}
	.st2{fill:#2398BF;}
	.st3{fill:none;stroke:#91B1CB;stroke-miterlimit:10;}
	.st4{fill:none;stroke:#7AAAC9;stroke-miterlimit:10;}
	.st5{fill:none;stroke:#B2B2B2;stroke-miterlimit:10;}
	.st6{fill:none;stroke:#B7B6B6;stroke-miterlimit:10;}
	.st7{fill:none;stroke:#BBBABA;stroke-miterlimit:10;}
	.st8{fill:none;stroke:#A6A6A5;stroke-miterlimit:10;}
	.st9{fill:none;stroke:#BDBCBC;stroke-miterlimit:10;}
	.st10{fill:none;stroke:#B9B8B8;stroke-miterlimit:10;}
	.st11{font-family:'ArialMT';}
	.st12{font-size:6.0905px;}
	.st13{font-size:5.5467px;}
	.st14{font-size:5.547px;}
	.st15{font-size:6px;}
	.st16{fill:#E5E5E5;stroke:#000000;stroke-linecap:round;stroke-miterlimit:10;}
	.st17{fill:none;stroke:#CDCCCC;stroke-miterlimit:10;}
	.st18{fill:none;stroke:#13017C;stroke-miterlimit:10;}
	.st19{font-size:10px;}
	.st20{fill:#1D1D1B;}
	.st21{fill:none;}
</style>
<g id="Слой_1_1_">
	<polygon class="st0" points="191.9,5.7 245.5,10.9 302.2,16.4 342.2,84.8 355.5,234 355.5,294.6 396.4,307 391.9,327.5 
		348.4,433.3 205.7,492.8 37.3,434.2 37.3,262.6 3.5,67.9 12.4,17.3 	"/>
	<path class="st1" d="M257.3,305.4c6.8,2.3,12.8,4.3,18.8,7.3c7,3,14,0,19-5c21-4,32-23.9,46.9-37.9c4,2,7.1,3.8,13.4-0.9"/>
	<polygon class="st2" points="253.3,10.3 257.7,14.8 248.1,24.4 268.1,24.4 261.6,37.6 266.9,53.9 260.1,56.6 258.1,76.4 
		264.6,86.2 273.7,86.2 269.6,92.7 281.7,107.5 286.8,97.5 282.3,81.2 286.8,73.2 293,71.7 304,82.9 342.4,85.5 342.2,83.5 
		302.2,15.1 	"/>
	<path class="st3" d="M182,342c6.1-14.2,12.1-28.2,22.1-40.2c1-1,4-2,6-2c14,0,27,1,41.2,4.3"/>
	<path class="st4" d="M37.8,269c4.2,1.7,10.2,0.7,13.2,4.7c3,5,8,7,11,11c4,5,7,11,7,17c-1,4-1,7-1,11c0,2,1,4,2,6c1,1,2,2,3,3
		c3,7,7,16,15,16c11,1,22-1,34-3c3,0,5-1,8,1c6,4,12,9,19,10c9,2,18,1,26.4-2.1"/>
	<polyline class="st5" points="16.3,15.7 24,64 113.7,58 103.6,10.1 109.3,9.7 118.5,58 202,52.1 189.6,4.4 195.6,4.8 208,53.9 
		234.9,202 297.4,192.9 	"/>
	<polyline class="st6" points="391.7,312 379.2,310.2 365.3,311.7 260.7,330.9 247.7,258.3 335.7,242 355.5,232.7 355.2,228.7 
		332.4,237 245.9,252.4 236.7,207.7 297.4,199.1 	"/>
	<polygon class="st7" points="78.2,432.6 123.8,434.6 192.8,432.6 187.5,390.2 135.5,394.9 113.4,392.3 104,393.7 86.5,392 
		80.6,394.6 78.2,403.5 80.3,414.5 	"/>
	<polygon class="st7" points="24.6,68.4 41.4,199.1 44.4,208 94.6,200.3 128.3,191.4 139.8,191.4 138.3,176.9 114.3,64 	"/>
	<polygon class="st8" points="202.3,57.7 229.9,202 144.3,214.8 144.3,194.9 143.1,176.9 120.3,64 	"/>
	<path class="st7" d="M96.6,232.7c2.2,7.7,8.1,22.6,6.1,18.5c-0.4-0.8,8.2,20.8,17.4,25c3.8,1.7,7.2,1.7,12.1,1.8
		c2,0,24.7-4.9,22.7-4.7c-6.3,0.4-12.7-12.6-11.9-13.6l-5.3-26.8l2.1-36h-14.1c-10.1,2.6-18.2,4.6-28.3,7.2L96.6,232.7z"/>
	<polygon class="st9" points="144.3,220.4 231.4,208 240.8,253.9 176.8,270.5 160.3,272.3 151.1,263.1 146.6,251.2 144.3,232.7 	"/>
	<polygon class="st7" points="163.8,276.1 186.9,360 198.2,352.3 246.8,332.4 256.8,330.9 242,259.5 176.8,275.8 	"/>
	<polygon class="st10" points="188.1,367.7 189.3,378 192.6,387.8 197.6,432.6 274.2,429.7 256.8,336.3 247.1,338.3 200,358.5 	"/>
	<polygon class="st7" points="263.1,334.2 279.4,430.2 327.1,428.7 335.4,426.6 337.7,419.2 325.3,337.5 324.1,323.5 	"/>
	<text transform="matrix(1.0317 -0.1531 0.1468 0.9892 169.9103 215.4505)" class="st11 st12">Садовая улица</text>
	<text transform="matrix(0.212 0.7853 -0.9654 0.2606 170.9563 314.9933)" class="st11 st13">Первомайская улица</text>
	<text transform="matrix(0.1673 0.796 -0.9786 0.2057 126.9288 116.6097)" class="st11 st14">Первомайская улица</text>
	<text transform="matrix(0.2057 0.9786 -0.9786 0.2057 238.0718 232.6816)" class="st11 st15">Октябрьская улица</text>
	<text transform="matrix(0.9786 -0.2057 0.2057 0.9786 183.6736 272.2497)" class="st11 st15">ул. 40 лет Победы</text>
	<text transform="matrix(0.9084 -0.4181 0.4181 0.9084 201.9256 356.3929)" class="st11 st15">ул. Ломоносова</text>
	<text transform="matrix(1 0 0 1 83.987 438.403)" class="st11 st15">Заречная ул.</text>
	<circle class="st16" cx="243" cy="80" r="4.7"/>
	<circle class="st16" cx="261.5" cy="264.2" r="4.7"/>
	<circle class="st16" cx="90" cy="425.5" r="4.7"/>
	<circle class="st16" cx="261.5" cy="346.6" r="4.7"/>
	<circle class="st16" cx="121.1" cy="228" r="4.7"/>
	<circle class="st16" cx="58.9" cy="282.6" r="4.7"/>
	<polyline class="st6" points="49.2,437 96.3,439.7 193.4,438.2 200,489.5 205.7,491.5 198.5,438.5 278.8,434.3 326.5,434.3 
		337.4,432 348.4,432 350.7,426.3 341.6,426.3 343.4,420.1 332.1,345.2 329.1,323.8 362.9,317 378.3,315.5 389.9,317 	"/>
	<line class="st17" x1="200" y1="489.5" x2="193.4" y2="438.2"/>
	<path class="st10" d="M18.3,64.3L3.5,66.6l0.7,4.2l14.1-1.6l17.8,128.6l4.4,15.4l52.4-7.7l-2.1,11l2.1,20.1l4.4,16l14.8,23.4
		l9.5,5.6l15.7,1.5l21-5.9l12.4,42.7v8.3l11.3,32v9.8l3.6,14.2L136,389l-20.7-2.7l-16.3,1.2H84.1l-5.6,1.5l-3.3,3.3l-3,10.1v3.6
		l2.4,6.8v11l-1.5,8.9l-35.9-3.3c12,1.1,23.9,2.2,35.9,3.3l1.5-8.9v-11l-2.4-6.8v-3.6l3-10.1l3.3-3.3l5.6-1.5h14.8l16.3-1.2L136,389
		l49.8-4.7l-3.6-14.2v-9.8l-11.3-32V320l-12.4-42.7l-21,5.9l-15.7-1.5l-9.5-5.6l-14.8-23.4l-3.9-14.2l-0.5-1.8
		c-0.7-6.7-1.4-13.4-2.1-20.1c0.7-3.6,1.4-7.3,2.1-11c-17.5,2.6-35,5.1-52.4,7.7l-4.4-15.4L18.3,69.3L4.2,70.9l-0.7-4.2L18.3,64.3
		l-7-42.3L18.3,64.3z"/>
	<text transform="matrix(1 0 0 1 200.2549 92.8121)" class="st11 st19">Соляной амбар</text>
	<text transform="matrix(1 0 0 1 257.6572 277.8921)" class="st20 st11 st19">Музей истории села</text>
	<text transform="matrix(1 0 0 1 258.4069 287.2326)" class="st11 st19">Нёнокса</text>
	<text transform="matrix(1 0 0 1 267.2119 351.3015)" class="st11 st19">Место Петровских </text>
	<text transform="matrix(1 0 0 1 282.2522 362.1911)" class="st11 st19">кружаний</text>
	<text transform="matrix(1 0 0 1 54.2547 296.3663)" class="st11 st19">Объект Археологического</text>
	<text transform="matrix(1 0 0 1 54.2547 304.7663)" class="st11 st19">наследия «Усолье»</text>
	<text transform="matrix(1 0 0 1 95.5197 242.2609)" class="st11 st19">Храмовый </text>
	<text transform="matrix(1 0 0 1 97.6097 250.6609)" class="st11 st19">комплекс</text>
	<text transform="matrix(1 0 0 1 104.2756 430.1923)" class="st11 st19">Холм Шоломье</text>
	<polygon class="st21" points="342.4,85.5 304,82.9 293.7,71.7 286.8,73.2 282.3,81.2 286.8,97.5 281.7,107.5 269.6,92.7 
		273.7,86.2 264.6,86.2 258.1,76.4 260.1,56.6 266.9,53.9 261.6,37.6 268.1,24.4 248.1,24.4 257.7,14.8 253.3,10.3 302.2,15.1 
		342.2,83.5 	"/>
	<rect x="222.6" y="84.2" class="st21" width="33.6" height="17.4"/>
</g>
</svg>
