<?xml version="1.0" encoding="utf-8"?>
<!-- Generator: Adobe Illustrator 24.3.0, SVG Export Plug-In . SVG Version: 6.00 Build 0)  -->
<svg version="1.1" id="Слой_1" xmlns="http://www.w3.org/2000/svg" xmlns:xlink="http://www.w3.org/1999/xlink" x="0px" y="0px"
	 viewBox="0 0 402.2 402.2" style="enable-background:new 0 0 402.2 402.2;" xml:space="preserve">
<style type="text/css">
	.st0{fill:#9DD6E8;}
	.st1{fill:#FFD97F;}
</style>
<g>
	<path class="st0" d="M358.2,0H44.1C19.7,0,0,19.7,0,44.1v314.1c0,24.3,19.7,44.1,44.1,44.1h314.1c24.3,0,44.1-19.7,44.1-44.1V44.1
		C402.2,19.7,382.5,0,358.2,0z"/>
	<polygon class="st1" points="199.8,19.2 177.2,148.5 222.3,148.5 	"/>
	<polygon class="st1" points="383.3,201.5 251.2,178.9 251.2,224 	"/>
	<polygon class="st1" points="199.8,387.9 222.3,254.7 177.2,254.7 	"/>
	<polygon class="st1" points="17.9,201.1 145.1,223.7 145.1,178.6 	"/>
	<polygon class="st1" points="332.5,68.4 220.6,148.4 252.5,180.3 	"/>
	<polygon class="st1" points="68.2,332.7 177.3,255.4 145.4,223.5 	"/>
	<polygon class="st1" points="332.5,335.6 252.1,223.3 220.2,255.2 	"/>
	<polygon class="st1" points="63.6,64.5 145.7,178.6 177.6,146.7 	"/>
</g>
<circle class="st1" cx="197.4" cy="202.3" r="91.2"/>
</svg>
