<?xml version="1.0" encoding="utf-8"?>
<!-- Generator: Adobe Illustrator 24.3.0, SVG Export Plug-In . SVG Version: 6.00 Build 0)  -->
<svg version="1.1" id="Слой_1" xmlns="http://www.w3.org/2000/svg" xmlns:xlink="http://www.w3.org/1999/xlink" x="0px" y="0px"
	 viewBox="0 0 205 280" style="enable-background:new 0 0 205 280;" xml:space="preserve">
<style type="text/css">
	.st0{fill:#FFC66A;stroke:#000000;stroke-linecap:round;stroke-miterlimit:10;}
	.st1{fill:#E5E5E5;stroke:#000000;stroke-width:0.5189;stroke-linecap:round;stroke-miterlimit:10;}
	.st2{fill:#FFFFFF;stroke:#000000;stroke-linecap:round;stroke-miterlimit:10;}
</style>
<path class="st0" d="M199,104.5c0-0.2,0-0.4,0-0.6c0-0.1,0-0.1,0-0.1c0-0.1,0-0.2,0-0.3c0,0,0,0,0,0c-0.2-53.2-43.4-96.3-96.7-96.3
	c-53.4,0-96.7,43.3-96.7,96.7c0,1.2,0,2.4,0.1,3.5c-0.1,0-0.2,0-0.2,0c0.4,17.6,7.1,56.6,32,97.2c23,37.6,49.6,57.7,64.8,66.5
	c15.3-8.9,45.2-29,68.1-66.4c24.8-40.3,28.3-79.3,28.6-98.4c0,0,0-0.1,0-0.1C199,105.7,199,105.1,199,104.5z"/>
<path class="st1" d="M340.1,236.1"/>
<circle class="st2" cx="104.9" cy="96" r="43.2"/>
</svg>
