<?xml version="1.0" encoding="utf-8"?>
<!-- Generator: Adobe Illustrator 24.3.0, SVG Export Plug-In . SVG Version: 6.00 Build 0)  -->
<svg version="1.1" id="Слой_1" xmlns="http://www.w3.org/2000/svg" xmlns:xlink="http://www.w3.org/1999/xlink" x="0px" y="0px"
	 viewBox="0 0 314.8 314.7" style="enable-background:new 0 0 314.8 314.7;" xml:space="preserve">
<style type="text/css">
	.st0{fill:#9DD6E8;}
	.st1{fill:#F1854F;}
	.st2{fill:#9C1915;}
	.st3{fill:#ABCF7A;}
	.st4{fill:#7B7D22;}
	.st5{fill:#F6A34D;}
	.st6{fill:#C14517;}
	.st7{fill:#FED275;}
</style>
<path class="st0" d="M280.3,0H34.5C15.4,0,0,15.4,0,34.5v245.8c0,19,15.4,34.5,34.5,34.5h245.8c19,0,34.5-15.4,34.5-34.5V34.5
	C314.7,15.4,299.3,0,280.3,0z"/>
<g id="Layer_1_1_">
	<g transform="matrix( 0.792877197265625, 0.165374755859375, -0.165374755859375, 0.792877197265625, 244.15,148.65) ">
		<g>
			<g id="Layer0_0_MEMBER_1_FILL">
				<path class="st1" d="M-62.4,119.1c2,1,3.6,1.3,4.9,0.8c0.8-0.3,1.3-1,1.7-1.9c0.3-0.9,0.2-1.6-0.3-2.2c-0.5-0.7-1.3-1-2.4-1
					c-0.5,0-1.4,0.1-2.6,0.2c-3.3-0.2-6.4-2.7-9.3-7.5c-3.7-6.2-7.3-12.6-10.6-19.2c-0.2-0.3-0.4-0.6-0.5-1c2.7,8,0.9,9.4-5.3,4.3
					c0.6,0.5,1.1,1.1,1.7,1.6c3.4,3.1,6.1,6,8.1,8.9c1.5,2.1,3.6,5.3,6.4,9.6C-67.9,115.2-65.2,117.7-62.4,119.1z"/>
				<path class="st1" d="M-152.3-64.5c-0.6,1.1-0.7,2.5-0.1,4.1c0.3,1,0.9,2.4,1.8,4.2c2.6,4.2,8.5,14.2,17.8,29.9
					c1.6,3.5-1.1,3.6-8.3,0.4c-7.2-3.2-12.3-6.4-15.3-9.6c-2-2.3-3.1-3.5-3.3-3.7c-1.3-1.4-2.7-2.3-4-2.9c-1.7-0.6-3.3-0.6-5-0.1
					c-1.8,0.7-2.8,1.8-3,3.3c-0.2,1.3,0.6,3.5,2.4,6.7c1.7,2.6,2,4.5,0.9,5.8c-0.9,1.1-2.7,1.4-5.5,0.9c-3-0.5-5.1-0.4-6.1,0.3
					c-1.7,1.2-1.9,3-0.5,5.4c1.3,2.1,3.1,3.8,5.5,4.9c7.2,3.6,12.7,6.4,16.4,8.4c1,0.4,1.9,1,2.7,1.7c0.8,0.8,1.3,1.7,1.4,2.6
					c-0.1,1.4-0.7,2.4-2,3.3c-1.3,0.7-2.7,1-4.2,0.9c-2.2-0.2-5.2-1-8.8-2.3c-4.1-1.5-6.9-2.4-8.6-2.7c-3.2-0.5-6.1,0.2-8.9,2.1
					c-2.8,1.9-3.9,4.2-3.1,7c0.7,2.6,4.1,5.2,10.1,8c5.4,2.4,7.9,5,7.4,7.9c0,0.4-0.3,1.3-0.9,2.7c-0.4,1.2-0.5,2.1-0.4,2.8
					c0.4,2.3,2.8,3.5,7.1,3.8c15.5,1.2,28.6,2.3,39.3,3.5c2,0.1,3.6,0.6,4.9,1.3c1.7,0.9,2.4,2,2.3,3.5c-0.2,1.1-0.8,2-2,2.8
					c-1,0.7-2.1,1.1-3.4,1.1c-2,0.3-4.6,0.1-7.6-0.5c-4.8-0.8-7.4-1.2-7.7-1.3c-2.9-0.3-5.5,0-7.9,0.8c-2.7,1-3,3.3-1,6.8
					c10.3,6.6,23.2,10.4,38.8,11.4c1.4,1,1.5,2,0.4,3c-1.1,0.9-3.3,2.5-6.6,4.9c4.2,3.4,10.6,8,19,13.7c4,2.9,7.6,5.7,10.8,8.4
					c0.3,0.3,0.6,0.5,0.9,0.7c6.2,5.2,8,3.8,5.3-4.3c0-0.3-0.1-0.5-0.1-0.7c-0.4-1-0.6-2.1-0.6-3.2c0-0.4,0-0.8,0-1.2
					c0.1-1.9,0.7-4.4,1.6-7.2c1.4-4.5,2.3-7.1,2.7-8c1-3,2.2-5.5,3.4-7.7c0.9-1.5,1.5-2.7,1.8-3.6c0.4-1.4,0.3-2.7-0.3-3.7
					c-0.4-0.8-1-1.4-1.8-1.8c-0.3-0.1-0.5-0.2-0.8-0.3c-0.5-0.1-1.1-0.2-1.8-0.3c-0.5,0.9-1.2,1.5-2.1,2c-0.8,0.5-1.6,0.7-2.5,0.7
					c-0.1,0-0.3,0-0.4-0.1c-1.1-0.1-1.9-0.5-2.4-1.4c-0.5-0.6-0.7-1.3-0.7-2c0-0.7,0.2-1.4,0.5-2c0.5-1.1,1.4-2.2,2.7-3.1
					c1.2-1,3.5-2.8,6.8-5.2c2.8-2.2,4.9-3.9,6.4-5.3c2.2-2.1,3.9-4.4,4.9-6.9c1.2-2.8,1.5-5.5,0.9-8.1c-0.3-1.6-1.1-2.7-2.2-3.3
					c-1-0.4-2.4-0.1-4.3,1c-2.9,1.6-7.4,4-13.4,7.2c-0.2,0.1-0.4,0.3-0.7,0.3c-0.2,0.1-0.4,0.2-0.6,0.3c-1.4,0.6-2.6,0.6-3.4-0.1
					c-1-0.7-1.3-1.8-0.9-3.2s1.3-2.6,2.5-3.5c2.8-2.4,6.6-4.9,11.5-7.2c5.5-2.5,9.7-4.5,12.4-6c10.3-5.1,16.6-11.5,18.7-19
					c0.3-1,0.3-2,0.1-2.9c-0.3-1.1-0.9-1.6-1.8-1.6c-0.8,0-1.6,0.6-2.4,1.8c-0.9,1-1.8,1.6-2.4,1.8c-1.2,0.2-1.8-0.5-1.9-2.1
					c-0.1-1.5,0.3-2.9,1-4.2c3.2-6.3,4.7-12.7,4.5-19.3c0.1-2.3-0.5-4.1-1.8-5.1c-1.5-1-3.2-0.8-5,0.6c-1.6,1.4-2.7,3.1-3.2,5.3
					c-0.9,2.9-1.5,4.9-2,5.9c-1,2-2.4,3.1-4.1,3.4c-0.8,0.1-1.1-0.3-0.7-1.4c0.2-0.9,0.7-1.7,1.5-2.6c1.1-1.6,1-3.3-0.3-5.1
					c-1.4-1.8-3-2.6-5.1-2.6c-3.4,0.3-6.3,2.6-8.7,7c-1.1,1.8-2.4,4.6-4.1,8.5c-1.6,3.8-2.9,6.6-4,8.4c-1.7,2.9-3.6,5.3-5.9,7.2
					c-2.6,2.2-4.9,2-6.9-0.5c1.5-9.6,6.6-19.1,15.1-28.4c2-2,3.3-3.7,3.8-5.1c0.3-1,0.3-2.1,0-3.2s-0.9-1.9-1.8-2.3
					c-1-0.4-2-0.2-2.8,0.7c-1,0.8-2.2,1.3-3.4,1.7c-0.8,1-1.3,0.5-1.6-1.6c-0.1-2,0.9-4.5,3.1-7.5c1.4-2.1,2.4-3.7,3-4.9
					c1.1-1.9,1.5-3.6,1.4-5.2c-0.1-1.7-0.8-3.1-2.2-4.4c-1.4-1.2-2.9-1.7-4.6-1.6c-1.2,0.1-2.3,0.6-3.3,1.4
					c-0.7,1.3-1.4,2.6-2.2,3.8c-3.5,5.8-7.3,11.7-11.4,17.7c-0.9,1.1-1.6,2-2.2,2.5c-1,0.8-1.9,1.2-2.8,1.1c-1.1-0.1-2-0.7-2.8-1.8
					c-0.7-0.9-1.1-2-1.4-3.2c-0.3-1.9-0.3-4.3,0.1-7c0.5-3.1,0.9-5.4,1-7c0.3-2.6,0.1-5-0.6-7.1c-0.8-2.5-2.1-4.4-4.1-5.5
					c-2.4-1.5-4,0.5-4.7,6.1c-1.9-1.2-3.9-4.7-6-10.5c-1.7-4.9-4-7.4-7-7.3c-2.7,0-4.4,1.7-5.2,5.1c-0.7,3-0.4,6.3,0.9,9.9
					c1.3,3.6,2.6,7.7,3.8,12.4c1.3,4.7,0.3,5.9-2.9,3.6c-2.8-2.7-5.7-4.5-8.4-5.5C-148.9-67.5-151.1-66.8-152.3-64.5z"/>
			</g>
		</g>
	</g>
	<g transform="matrix( -0.8742828369140625, 0.0490875244140625, 0.0490875244140625, 0.8742828369140625, 566.05,197.35) ">
		<g>
			<g id="Layer0_0_MEMBER_1_MEMBER_1_FILL">
				<path class="st2" d="M518.9-108.9c0-0.1,0-0.2-0.1-0.1l-14.4,6.8l-0.3,0.2l-3.5,1.9l-0.6,0.3l-14.6,9L469.7-79l-3,2.7
					c-0.1,0.2-0.1,0.3,0,0.5c0.2,0.2,0.3,0.2,0.5,0l11.4-9.5l0.5-0.3l5.9-4.4l13.9-8.7l19.9-10C519-108.8,519-108.8,518.9-108.9z"/>
			</g>
		</g>
	</g>
	<g transform="matrix( -0.8742828369140625, 0.0490875244140625, 0.0490875244140625, 0.8742828369140625, 566.05,197.35) ">
		<g>
			<g id="Layer0_0_MEMBER_1_MEMBER_2_FILL">
				<path class="st2" d="M492.9-107.6c0-0.1-0.1-0.1-0.2,0l-4.7,6.4l-2.1,4.3l-0.1,0.4l-0.2,0.4l-0.3,0.9l-0.2,0.4l-0.7,2.3
					l-0.1,0.1v0.1l-0.1,0.1l-0.1,0.3l-0.5,1.6l-0.3,0.5l-0.1,0.2c-0.1,0.2,0,0.4,0.1,0.5c0.2,0.1,0.4,0.1,0.5-0.1v-0.1l0.7-1.8
					l0.2-0.9l0.1-0.2v-0.1l0.8-2.7l0.2-0.5l0.4-1.3l0.2-0.4l0.1-0.5l4.2-7.3l2-2.4C493-107.5,493-107.5,492.9-107.6z"/>
			</g>
		</g>
	</g>
	<g transform="matrix( -0.8742828369140625, 0.0490875244140625, 0.0490875244140625, 0.8742828369140625, 566.05,197.35) ">
		<g>
			<g id="Layer0_0_MEMBER_1_MEMBER_3_FILL">
				<path class="st2" d="M498.7-103.6l-0.2,0.3l-2,5.2l-0.1,0.3c-0.1,0.3,0,0.4,0.2,0.4c0.2,0.1,0.4,0,0.4-0.2l0.1-0.3l0.1-0.3
					l2.1-5.8l0.2-0.3l0.3-0.6l0.4-0.5l0.7-0.7l0.2-0.3l0.3-0.2l0.3-0.3l0.3-0.2c0.1,0,0.1-0.1,0-0.2c0-0.1-0.1-0.1-0.2,0l-0.5,0.4
					l-0.3,0.3l-0.3,0.2l-0.3,0.3l-0.2,0.3l-0.3,0.3l-1.2,1.8L498.7-103.6z"/>
			</g>
		</g>
	</g>
	<g transform="matrix( -0.8742828369140625, 0.0490875244140625, 0.0490875244140625, 0.8742828369140625, 566.05,197.35) ">
		<g>
			<g id="Layer0_0_MEMBER_1_MEMBER_4_FILL">
				<path class="st2" d="M515.2-99.7c0.1,0,0.2-0.1,0.1-0.1c0-0.1,0-0.2-0.1-0.1l-3.5,1l-4.7,0.7h-0.5l-0.4,0.1l-9.3,0.1
					c0-0.1-0.1,0-0.2,0.1c-0.1,0.1-0.1,0.1-0.1,0.2c0,0.2,0.1,0.3,0.3,0.4l0.1-0.1l8.4-0.1l0.5-0.1h0.4l0.5-0.1h0.4l3.4-0.5l4.7-1.4
					L515.2-99.7z"/>
			</g>
		</g>
	</g>
	<g transform="matrix( -0.8742828369140625, 0.0490875244140625, 0.0490875244140625, 0.8742828369140625, 566.05,197.35) ">
		<g>
			<g id="Layer0_0_MEMBER_1_MEMBER_5_FILL">
				<path class="st2" d="M497.9-88.7l-6.8,1.6l-12.2,1c-0.1-0.1-0.3,0.1-0.4,0.3c0,0.2,0.1,0.3,0.3,0.3l0.9,0.1l7.9-0.6l9.1-2
					l1.2-0.4c0.1,0,0.2-0.1,0.1-0.1C498.1-88.8,498-88.8,497.9-88.7z"/>
			</g>
		</g>
	</g>
	<g transform="matrix( -0.8742828369140625, 0.0490875244140625, 0.0490875244140625, 0.8742828369140625, 566.05,197.35) ">
		<g>
			<g id="Layer0_0_MEMBER_1_MEMBER_7_FILL">
				<path class="st2" d="M486.7-130.4c-0.1-0.1-0.1-0.1-0.1,0.1l-2.8,5.6l-0.3,0.4l-1.4,2.5l-1.5,3.9l-0.1,0.4l-0.2,0.6v0.1
					l-0.1,0.1v0.1l-1.4,6.5c-0.1,0.3,0,0.4,0.2,0.4c0.3,0.1,0.4,0,0.4-0.2l1.4-6.6v-0.1h0.1v-0.1l0.1-0.2l0.1-0.4l0.1-0.3l1-3.2
					l0.9-1.9l2.9-5.1l0.8-1.9l0.1-0.5C486.9-130.4,486.8-130.4,486.7-130.4z"/>
			</g>
		</g>
	</g>
	<g transform="matrix( -0.8742828369140625, 0.0490875244140625, 0.0490875244140625, 0.8742828369140625, 566.05,197.35) ">
		<g>
			<g id="Layer0_0_MEMBER_1_MEMBER_8_FILL">
				<path class="st2" d="M479-110.1c0.1,0.2,0.2,0.3,0.4,0.3l6.6-1.2l0.7-0.1l2.4-0.5l0.3-0.1l1.8-0.5l1-0.4l0.2-0.1l0.2-0.1
					l0.2-0.1l0.1-0.1l0.7-0.5l0.1-0.1c0.1-0.1,0.1-0.1,0-0.2c0-0.1-0.1-0.1-0.2,0l-0.1,0.1l-0.1,0.1l-0.5,0.3l-0.2,0.1l-0.1,0.1
					l-0.2,0.1l-0.2,0.1l-0.5,0.1l-1,0.4l-1.8,0.5l-9.3,1.5C479.1-110.4,479-110.3,479-110.1z"/>
			</g>
		</g>
	</g>
	<g transform="matrix( -0.8742828369140625, 0.0490875244140625, 0.0490875244140625, 0.8742828369140625, 566.05,197.35) ">
		<g>
			<g id="Layer0_0_MEMBER_1_MEMBER_12_FILL">
				<path class="st2" d="M409.9-114.6c0.3,0.9,0.6,1.6,1,2.1c0.5,0.8,1.3,1.6,2.5,2.4l2.4,1.5l0.3,0.1h0.1v0.1h0.1l23.5,10.7
					c2.4,1.2,4.4,2.2,5.9,3l5.5,3.3c2.2,1.5,3.9,2.7,4.9,3.4l3.1,2.6l0.2,0.3l0.3,0.2l3.2,3.3l0.1,0.2l0.2,0.1l2.8,3.8l0.1,0.1
					l0.1,0.1l0.7,1.2c0.1,0.2,0.3,0.2,0.5,0.1c0.2-0.1,0.2-0.3,0.1-0.5l-0.5-0.7l-0.2-0.4l-0.1-0.2l-0.1-0.1l-0.1-0.1l-5.5-6.5
					l-0.3-0.2l-0.9-0.9l-0.3-0.2l-0.2-0.2l-3.2-2.6c-1.2-0.9-2.8-2.1-4.9-3.5l-11.4-6.3l-23.5-10.6h-0.1l-0.1-0.1l-0.7-0.4
					c-0.6-0.3-1.2-0.6-1.8-1.1c-1.1-0.8-2-1.6-2.5-2.4c-0.5-0.7-0.8-1.3-0.9-2l-0.1-0.2v-0.4l-0.1-0.2l-0.1-0.1
					c-0.1,0.1-0.1,0.2-0.1,0.2v0.6L409.9-114.6z"/>
			</g>
		</g>
	</g>
	<g transform="matrix( -0.8742828369140625, 0.0490875244140625, 0.0490875244140625, 0.8742828369140625, 566.05,197.35) ">
		<g>
			<g id="Layer0_0_MEMBER_1_MEMBER_13_FILL">
				<path class="st2" d="M416.9-93.2L416.9-93.2l1,0.4c0.5,0,0.9,0,1.2-0.1l3.2-0.8l2-0.2c0.9-0.1,1.6-0.1,2.1-0.1h2.2
					c1.4-0.1,2.1-0.2,2.2-0.2c1-0.1,1.7-0.2,2.2-0.3l0.5-0.1h0.1l0.1-0.1l0.3-0.1l2.5-1.2l0.4-0.1l0.1-0.1l0.2-0.1l2.6-1.3
					c0.2-0.1,0.2-0.2,0.1-0.5c-0.1-0.2-0.2-0.2-0.5-0.1l-2.7,1.4l-0.2,0.1l-0.3,0.1l-2.4,1.2l-0.2,0.1l-0.1,0.1h-0.1l-0.1,0.1
					l-0.5,0.1l-4.2,0.5l-2.2,0.1c-0.5,0-1.2,0.1-2.1,0.1l-2,0.3l-3.2,0.9c-0.5,0.1-0.8,0.1-1.1,0l-0.7-0.1l-0.2-0.1H417
					C416.9-93.4,416.9-93.3,416.9-93.2z"/>
			</g>
		</g>
	</g>
	<g transform="matrix( -0.8742828369140625, 0.0490875244140625, 0.0490875244140625, 0.8742828369140625, 566.05,197.35) ">
		<g>
			<g id="Layer0_0_MEMBER_1_MEMBER_14_FILL">
				<path class="st2" d="M431.3-110.6l0.1,0.1l0.4,0.3l1.8,1.6l0.4,0.4l2.2,2.6l0.4,0.6l1.4,2.5l0.3,0.6l0.7,2.2l0.1,0.5l0.1,0.4
					l0.1,0.8l0.1,0.1c0,0.3,0.1,0.4,0.3,0.3c0.3,0,0.4-0.1,0.3-0.3v-0.2l-0.1-0.5l-0.1-0.8l-0.1-0.5l-2.6-5.4l-2.7-3.2l-1.3-1.1
					l-0.4-0.3l-1-0.8l-0.1-0.1c-0.1-0.1-0.2-0.1-0.2,0C431.2-110.7,431.2-110.7,431.3-110.6z"/>
			</g>
		</g>
	</g>
	<g transform="matrix( -0.8742828369140625, 0.0490875244140625, 0.0490875244140625, 0.8742828369140625, 566.05,197.35) ">
		<g>
			<g id="Layer0_0_MEMBER_1_MEMBER_15_FILL">
				<path class="st2" d="M421.5-120.1c-0.1,0-0.2,0.1-0.1,0.1v0.7l0.4,2.6l0.1,0.4l0.1,0.7l0.5,1.5l0.1,0.3l2.2,5.3h-0.1l0.1,0.2
					l0.1,0.3v0.3l0.1,0.5v0.3l0.1,0.5v2c0,0.2,0,0.3,0.3,0.4c0.2,0,0.3-0.1,0.3-0.3l0.1-0.3v-1.4l-0.1-1.1v-0.3l-0.1-0.2l-0.3-1.1
					h-0.1l-2.2-5.3l-0.1-0.3l-0.6-1.8l-0.1-0.7l-0.1-0.3l-0.5-3C421.7-120.2,421.6-120.2,421.5-120.1z"/>
			</g>
		</g>
	</g>
	<g transform="matrix( -0.8742828369140625, 0.0490875244140625, 0.0490875244140625, 0.8742828369140625, 566.05,197.35) ">
		<g>
			<g id="Layer0_0_MEMBER_1_MEMBER_16_FILL">
				<path class="st2" d="M424.5-103.9l-0.1,0.1l-0.1,0.1l-2.3,1.4l-1.5,0.6l-0.3,0.1l-0.3,0.1l-1.1,0.3l-2.1,0.3h-2.8
					c-0.1-0.1-0.1,0-0.1,0.1c-0.1,0.1-0.1,0.1,0.1,0.1l1.1,0.1l3.9-0.2l1.7-0.4l3.5-1.5l0.7-0.4l0.1-0.1l0.1-0.1l0.2-0.2l0.2-0.1
					l0.1-0.1l0.1-0.1c0.2-0.1,0.2-0.2,0-0.5c-0.1-0.1-0.2-0.1-0.5,0l-0.2,0.2L424.5-103.9z"/>
			</g>
		</g>
	</g>
	<g transform="matrix( -0.8742828369140625, 0.0490875244140625, 0.0490875244140625, 0.8742828369140625, 566.05,197.35) ">
		<g>
			<g id="Layer0_0_MEMBER_1_MEMBER_17_FILL">
				<path class="st2" d="M455.2-89.1c-0.1-0.2-0.2-0.3-0.4-0.3l-10.5,1.1H443l-2.6-0.3l-0.3-0.1l-0.3-0.1l-0.1-0.1h-0.2
					c-0.1-0.1-0.1-0.1-0.1,0.1c-0.1,0.1-0.1,0.1,0.1,0.1l0.1,0.1l0.2,0.1l0.3,0.1l2.3,0.4h0.6c0.3,0.1,0.8,0.1,1.4,0.1l9.9-0.7
					l0.7-0.1C455.1-88.8,455.2-88.9,455.2-89.1z"/>
			</g>
		</g>
	</g>
	<g transform="matrix( -0.8742828369140625, 0.0490875244140625, 0.0490875244140625, 0.8742828369140625, 566.05,197.35) ">
		<g>
			<g id="Layer0_0_MEMBER_1_MEMBER_18_FILL">
				<path class="st2" d="M450.1-105.1c-0.1,0-0.2,0.1-0.1,0.1l0.8,5.5l1.8,6.3l0.3,0.6v0.1h0.1v0.1l0.1,0.1l0.1,0.3l1.4,2.9
					c0.1,0.2,0.3,0.2,0.5,0.1c0.2-0.1,0.2-0.3,0.1-0.5l-0.1-0.1l-0.1-0.1l-0.3-0.4l-1.2-2.6v-0.1h-0.1v-0.1l-0.3-0.6l-1.4-4.3
					l-0.3-1.5l-0.1-0.3l-1-5.5C450.3-105.1,450.2-105.2,450.1-105.1z"/>
			</g>
		</g>
	</g>
	<g transform="matrix( -0.8742828369140625, 0.0490875244140625, 0.0490875244140625, 0.8742828369140625, 566.05,197.35) ">
		<g>
			<g id="Layer0_0_MEMBER_1_MEMBER_19_FILL">
				<path class="st2" d="M493.1-64.6l-1.4,0.7l-0.7,0.3l-15.3,8.2l-0.3,0.3l-0.4,0.2l-9.6,7c-0.1,0.1-0.1,0.2,0,0.5
					c0.1,0.2,0.2,0.2,0.5,0l6.1-4.7l14.5-8.8l14.1-6.2c0.1,0,0.2-0.1,0.1-0.1c0-0.1,0-0.2-0.1-0.1L493.1-64.6z"/>
			</g>
		</g>
	</g>
	<g transform="matrix( -0.8742828369140625, 0.0490875244140625, 0.0490875244140625, 0.8742828369140625, 566.05,197.35) ">
		<g>
			<g id="Layer0_0_MEMBER_1_MEMBER_20_FILL">
				<path class="st2" d="M480.3-62.1l-0.5,0.3l-3.9,3l-0.9,0.9l-0.2,0.3l-0.4,0.4l-0.6,0.7l-1.8,2.7l-0.7,1.4
					c-0.1,0.2,0,0.4,0.1,0.5c0.2,0.1,0.4,0,0.5-0.1l0.3-0.5l0.1-0.3l0.2-0.3l0.1-0.3l0.3-0.4l0.2-0.4l0.6-0.9l0.1-0.3l0.1-0.2
					l0.7-0.9l0.1-0.3l0.2-0.2l0.2-0.3l1.9-2l2.6-2.1l0.3-0.1l0.5-0.3c0.1,0,0.1-0.1,0-0.2C480.5-62.3,480.4-62.3,480.3-62.1z"/>
			</g>
		</g>
	</g>
	<g transform="matrix( -0.8742828369140625, 0.0490875244140625, 0.0490875244140625, 0.8742828369140625, 566.05,197.35) ">
		<g>
			<g id="Layer0_0_MEMBER_1_MEMBER_21_FILL">
				<path class="st2" d="M487.5-59.8l-0.4-0.1l-2-0.5l-0.5-0.1c-0.3-0.1-0.4,0-0.4,0.2c-0.1,0.3,0,0.4,0.2,0.4l1,0.3l3,0.5h0.5
					c0.2,0,0.6,0.1,1.1,0.1l3-0.1l1.5-0.3l1-0.4c0.1,0,0.2-0.1,0.1-0.1c0-0.1,0-0.2-0.1-0.1l-1,0.3l-2.4,0.4L487.5-59.8z"/>
			</g>
		</g>
	</g>
	<g transform="matrix( -0.8742828369140625, 0.0490875244140625, 0.0490875244140625, 0.8742828369140625, 566.05,197.35) ">
		<g>
			<g id="Layer0_0_MEMBER_1_MEMBER_22_FILL">
				<path class="st2" d="M491.4-65.5l-0.4,0.1l-5.9,3.6l-1.6,1.6c-0.1,0.2-0.1,0.3,0,0.5c0.2,0.2,0.3,0.2,0.5,0l0.3-0.3l1.8-1.8
					l5.4-3.4c0.1,0,0.2-0.1,0.1-0.1C491.5-65.6,491.5-65.6,491.4-65.5z"/>
			</g>
		</g>
	</g>
	<g transform="matrix( -0.8742828369140625, 0.0490875244140625, 0.0490875244140625, 0.8742828369140625, 566.05,197.35) ">
		<g>
			<g id="Layer0_0_MEMBER_1_MEMBER_24_FILL">
				<path class="st2" d="M450.2-71.9l0.5,1.6l1.1,2.6c0.3,0.6,0.5,1.1,0.8,1.5l5.7,9.1l0.8,2v0.2l0.1,0.1v0.3l0.1,0.2
					c0,0.2,0.1,0.3,0.3,0.3c0.2-0.1,0.3-0.2,0.3-0.4v-0.2l-0.1-0.3V-55l-1-2.4l-5.5-8.1l-0.4-0.8c-0.3-0.4-0.5-0.9-0.8-1.5l-1.1-2.6
					l-0.5-1.8c0-0.1,0-0.2-0.1-0.1c-0.1,0-0.2,0.1-0.1,0.1L450.2-71.9z"/>
			</g>
		</g>
	</g>
	<g transform="matrix( -0.8742828369140625, 0.0490875244140625, 0.0490875244140625, 0.8742828369140625, 566.05,197.35) ">
		<g>
			<g id="Layer0_0_MEMBER_1_MEMBER_27_FILL">
				<path class="st2" d="M459.7-54.4c-0.1-0.2-0.2-0.3-0.4-0.3l-1.2,0.1l-0.3,0.1h-2.6c-0.5,0-0.9,0-1.1-0.1h-0.3l-0.3-0.1h-0.1
					l-0.2-0.1H453l-0.3-0.1h-0.1l-0.5-0.3l-1.1-0.8l-0.2-0.2l-0.2-0.1l-0.7-0.7l-1.5-2c0-0.1-0.1-0.1-0.2,0c-0.1,0-0.1,0.1,0,0.2
					l0.3,0.5l1.6,2l0.6,0.6l0.2,0.1l1.2,0.9l1,0.5h0.2l0.1,0.1h0.1l0.6,0.1l1.2,0.1l3,0l1.2-0.1C459.6-54.1,459.7-54.2,459.7-54.4z"
					/>
			</g>
		</g>
	</g>
	<g transform="matrix( -0.7277069091796875, 0.04083251953125, 0.04083251953125, 0.7277069091796875, 524.15,185.8) ">
		<g>
			<g id="Layer0_0_MEMBER_1_MEMBER_28_FILL">
				<path class="st2" d="M509.7-44c0,0.2,0.1,0.3,0.3,0.4l15.8-0.2l0.1-0.2l-0.1-0.1l-15.7-0.2C509.9-44.3,509.7-44.2,509.7-44z"/>
			</g>
		</g>
	</g>
	<g transform="matrix( 0.611358642578125, 0.53118896484375, -0.53118896484375, 0.611358642578125, 416.6,109.4) ">
		<g>
			<g id="Layer0_0_MEMBER_3_FILL">
				<path class="st3" d="M-117.4,319c2,1,3.6,1.3,4.9,0.8c0.8-0.3,1.3-1,1.7-1.9c0.3-0.9,0.2-1.6-0.3-2.2c-0.5-0.7-1.3-1-2.4-1
					c-0.5,0-1.4,0.1-2.6,0.2c-3.3-0.2-6.4-2.7-9.3-7.5c-3.7-6.2-7.3-12.6-10.5-19.2c-0.2-0.3-0.4-0.6-0.5-1c2.7,8,0.9,9.4-5.3,4.3
					c0.6,0.5,1.1,1.1,1.7,1.6c3.4,3.1,6.1,6,8.1,8.9c1.5,2.1,3.6,5.3,6.4,9.6C-122.9,315.1-120.2,317.6-117.4,319z"/>
				<path class="st3" d="M-207.3,135.4c-0.6,1.1-0.7,2.5-0.1,4.1c0.3,1,0.9,2.4,1.8,4.2c2.6,4.2,8.5,14.2,17.8,29.9
					c1.6,3.5-1.1,3.6-8.3,0.4c-7.2-3.2-12.3-6.4-15.3-9.6c-2-2.3-3.1-3.5-3.3-3.7c-1.4-1.4-2.7-2.3-4-2.9c-1.7-0.6-3.3-0.6-5-0.1
					c-1.8,0.7-2.8,1.8-3,3.3c-0.2,1.3,0.6,3.5,2.4,6.7c1.7,2.6,2,4.5,0.9,5.7c-0.9,1.1-2.7,1.4-5.5,1c-3-0.5-5.1-0.4-6.1,0.3
					c-1.7,1.2-1.9,3-0.5,5.4c1.3,2.1,3.1,3.8,5.5,4.9c7.2,3.6,12.7,6.5,16.4,8.4c1,0.4,1.9,1,2.7,1.7c0.8,0.8,1.3,1.7,1.4,2.6
					c-0.1,1.4-0.7,2.4-2,3.2c-1.3,0.7-2.7,1-4.2,0.9c-2.2-0.2-5.2-1-8.8-2.3c-4.1-1.5-6.9-2.4-8.6-2.7c-3.2-0.5-6.1,0.2-8.9,2.1
					c-2.8,1.9-3.9,4.2-3.1,7c0.7,2.6,4.1,5.2,10.1,8c5.4,2.4,7.9,5,7.4,7.9c0,0.4-0.3,1.3-0.9,2.7c-0.4,1.2-0.5,2.1-0.4,2.8
					c0.4,2.2,2.8,3.5,7.1,3.8c15.5,1.2,28.5,2.3,39.3,3.5c2,0.1,3.6,0.6,4.9,1.3c1.7,0.9,2.4,2,2.3,3.5c-0.2,1.1-0.8,2-2,2.8
					c-1,0.7-2.1,1.1-3.4,1.1c-2,0.3-4.6,0.1-7.6-0.5c-4.8-0.8-7.4-1.2-7.7-1.3c-2.9-0.3-5.5,0-7.9,0.8c-2.7,1-3,3.3-1,6.8
					c10.3,6.6,23.2,10.4,38.8,11.4c1.4,1,1.5,2,0.4,3c-1.1,0.9-3.3,2.5-6.6,4.9c4.2,3.4,10.6,8,19,13.7c4,2.9,7.6,5.7,10.8,8.4
					c0.3,0.3,0.6,0.5,0.9,0.7c6.2,5.2,8,3.8,5.3-4.3c-0.1-0.3-0.1-0.5-0.1-0.7c-0.4-1-0.6-2.1-0.6-3.2c0-0.4,0-0.8,0-1.2
					c0.1-1.9,0.7-4.4,1.6-7.2c1.4-4.5,2.3-7.1,2.7-8c1-3,2.2-5.5,3.4-7.7c0.9-1.5,1.5-2.7,1.8-3.6c0.4-1.4,0.3-2.7-0.3-3.7
					c-0.4-0.8-0.9-1.4-1.8-1.8c-0.3-0.1-0.5-0.2-0.8-0.3c-0.5-0.1-1.1-0.2-1.8-0.3c-0.5,0.9-1.2,1.5-2.1,2c-0.8,0.5-1.6,0.7-2.5,0.7
					c-0.1,0-0.3,0-0.4-0.1c-1.1-0.1-1.9-0.5-2.4-1.4c-0.5-0.6-0.7-1.3-0.7-2c0-0.7,0.2-1.4,0.5-2c0.5-1.1,1.4-2.2,2.7-3.1
					c1.2-1,3.5-2.8,6.8-5.2c2.8-2.2,4.9-3.9,6.3-5.3c2.2-2.1,3.9-4.4,4.9-6.9c1.2-2.8,1.5-5.5,0.9-8.1c-0.3-1.6-1.1-2.7-2.2-3.3
					c-1-0.4-2.4-0.1-4.3,1c-2.9,1.6-7.4,4-13.4,7.2c-0.2,0.1-0.4,0.2-0.7,0.3c-0.2,0.1-0.4,0.2-0.6,0.3c-1.4,0.6-2.6,0.6-3.4-0.1
					c-1-0.7-1.3-1.8-0.9-3.2s1.3-2.6,2.5-3.5c2.8-2.4,6.6-4.9,11.5-7.2c5.5-2.5,9.7-4.5,12.4-6c10.3-5.1,16.6-11.5,18.7-19
					c0.3-1,0.3-2,0.1-2.9c-0.3-1.1-0.9-1.6-1.8-1.5c-0.8,0-1.6,0.6-2.4,1.8c-0.9,1-1.8,1.6-2.4,1.8c-1.2,0.2-1.8-0.5-1.9-2.1
					c-0.1-1.5,0.3-2.9,1-4.2c3.2-6.3,4.7-12.7,4.5-19.3c0.1-2.3-0.5-4.1-1.8-5.1c-1.5-1-3.2-0.8-5,0.6c-1.6,1.4-2.7,3.1-3.2,5.3
					c-0.9,2.9-1.5,4.9-2,5.9c-1,2-2.4,3.1-4.1,3.4c-0.8,0.1-1.1-0.3-0.7-1.4c0.2-0.9,0.7-1.7,1.5-2.6c1.1-1.6,1-3.3-0.3-5.1
					c-1.4-1.8-3-2.6-5.1-2.6c-3.4,0.3-6.3,2.6-8.7,7c-1.1,1.8-2.4,4.6-4.1,8.5c-1.6,3.8-2.9,6.6-4,8.4c-1.7,2.9-3.6,5.3-5.9,7.2
					c-2.6,2.2-4.9,2-6.9-0.5c1.5-9.6,6.6-19.1,15.1-28.4c2-2,3.3-3.7,3.8-5.1c0.3-1,0.3-2.1,0-3.2s-0.9-1.9-1.8-2.3
					c-1-0.4-2-0.2-2.8,0.7c-1,0.8-2.2,1.3-3.4,1.7c-0.8,1-1.3,0.5-1.6-1.6c-0.1-2,0.9-4.5,3.1-7.5c1.4-2.1,2.4-3.7,3-4.9
					c1.1-1.9,1.5-3.6,1.4-5.2c-0.1-1.7-0.8-3.1-2.2-4.4c-1.4-1.2-2.9-1.7-4.6-1.6c-1.2,0.1-2.3,0.6-3.3,1.4
					c-0.7,1.3-1.4,2.6-2.2,3.8c-3.5,5.8-7.3,11.7-11.4,17.7c-0.9,1.1-1.6,2-2.2,2.5c-1,0.8-1.9,1.2-2.8,1.1c-1.1-0.1-2-0.7-2.8-1.8
					c-0.7-0.9-1.1-2-1.4-3.2c-0.3-1.9-0.3-4.3,0.1-7c0.5-3.1,0.9-5.4,1-7c0.3-2.6,0.1-5-0.6-7.1c-0.8-2.5-2.1-4.4-4.1-5.5
					c-2.4-1.5-4,0.5-4.7,6.1c-1.9-1.2-3.9-4.7-5.9-10.5c-1.7-4.9-4-7.4-7-7.3c-2.7,0-4.4,1.7-5.2,5.1c-0.7,3-0.4,6.3,0.9,9.9
					c1.3,3.6,2.6,7.7,3.9,12.4c1.3,4.7,0.3,5.9-2.9,3.6c-2.8-2.7-5.7-4.5-8.4-5.5C-203.9,132.4-206.1,133-207.3,135.4z"/>
			</g>
		</g>
	</g>
	<g transform="matrix( -0.6551055908203125, -0.319366455078125, -0.319366455078125, 0.6551055908203125, 642.85,278.5) ">
	</g>
	<g transform="matrix( -0.78704833984375, -0.3837127685546875, -0.3837127685546875, 0.78704833984375, 673.7,308.8) ">
		<g>
			<g id="Layer0_0_MEMBER_3_MEMBER_4_FILL">
				<path class="st4" d="M612.3,65.7c0.1,0,0.2-0.1,0.1-0.1c0-0.1,0-0.2-0.1-0.1l-3.5,1l-4.7,0.7h-0.5l-0.4,0.1l-9.3,0.1
					c0-0.1-0.1,0-0.2,0.1c-0.1,0.1-0.1,0.1-0.1,0.2c0,0.2,0.1,0.3,0.3,0.4l0.1-0.1l8.4-0.1l0.5-0.1h0.4l0.5-0.1h0.4l3.4-0.5l4.7-1.4
					L612.3,65.7z"/>
			</g>
		</g>
	</g>
	<g transform="matrix( -0.6551055908203125, -0.319366455078125, -0.319366455078125, 0.6551055908203125, 642.85,278.5) ">
	</g>
	<g transform="matrix( 0.807403564453125, -0.063995361328125, 0.063995361328125, 0.807403564453125, 168,216.85) ">
		<g>
			<g id="Layer0_0_MEMBER_5_FILL">
				<path class="st5" d="M11.4,32c2,1,3.6,1.3,4.9,0.8c0.8-0.3,1.3-1,1.7-1.9c0.3-0.9,0.2-1.6-0.3-2.2c-0.5-0.7-1.3-1-2.4-1
					c-0.5,0-1.4,0.1-2.6,0.2c-3.3-0.2-6.4-2.7-9.3-7.5C-0.2,14.1-3.7,7.7-7,1.2c-0.2-0.3-0.4-0.6-0.5-1c2.7,8,1,9.4-5.3,4.3
					c0.6,0.5,1.1,1.1,1.7,1.6C-7.8,9-5.1,12-3,14.9c1.5,2.1,3.6,5.3,6.4,9.6C5.9,28,8.6,30.5,11.4,32z"/>
				<path class="st5" d="M-78.5-151.6c-0.6,1.1-0.7,2.5-0.1,4.1c0.3,1,0.9,2.4,1.8,4.2c2.6,4.2,8.5,14.2,17.8,29.9
					c1.6,3.5-1.2,3.6-8.3,0.4c-7.2-3.2-12.3-6.4-15.3-9.6c-2-2.3-3.1-3.5-3.3-3.7c-1.3-1.4-2.7-2.3-4-2.9c-1.7-0.6-3.3-0.6-5-0.1
					c-1.8,0.7-2.8,1.8-3,3.3c-0.2,1.3,0.6,3.5,2.4,6.7c1.7,2.6,2,4.5,0.9,5.7c-0.9,1.1-2.7,1.4-5.5,1c-3-0.5-5.1-0.4-6.2,0.3
					c-1.7,1.2-1.9,3-0.5,5.4c1.3,2.1,3.1,3.8,5.5,4.9c7.2,3.6,12.7,6.4,16.4,8.4c1,0.4,1.9,1,2.7,1.7c0.8,0.8,1.3,1.7,1.4,2.6
					c-0.1,1.4-0.7,2.4-2,3.2c-1.3,0.7-2.7,1-4.2,0.9c-2.2-0.2-5.2-0.9-8.8-2.3c-4.1-1.5-6.9-2.4-8.7-2.7c-3.2-0.5-6.1,0.2-8.9,2.1
					c-2.8,1.9-3.9,4.2-3.1,7c0.7,2.6,4.1,5.2,10.1,8c5.4,2.4,7.9,5,7.4,7.9c0,0.4-0.3,1.3-0.9,2.7c-0.4,1.2-0.5,2.1-0.4,2.8
					c0.4,2.2,2.8,3.5,7.1,3.8c15.5,1.2,28.5,2.3,39.3,3.5c2,0.1,3.6,0.6,4.9,1.3c1.7,0.9,2.4,2,2.3,3.5c-0.2,1.1-0.8,2-2,2.8
					c-1,0.7-2.1,1.1-3.4,1.1c-2,0.3-4.6,0.1-7.6-0.5c-4.8-0.8-7.4-1.2-7.7-1.3c-2.9-0.3-5.5,0-7.9,0.8c-2.7,1-3,3.3-1,6.8
					c10.3,6.6,23.2,10.4,38.8,11.4c1.4,1,1.5,2,0.4,3c-1.1,0.9-3.3,2.5-6.6,4.9c4.2,3.4,10.6,8,19,13.7c4,2.9,7.6,5.7,10.8,8.4
					c0.3,0.3,0.6,0.5,0.9,0.7c6.2,5.2,8,3.8,5.3-4.3c-0.1-0.3-0.1-0.5-0.1-0.7c-0.4-1-0.6-2.1-0.6-3.2c0-0.4,0-0.8,0-1.2
					c0.1-1.9,0.7-4.4,1.6-7.2c1.4-4.5,2.3-7.1,2.7-8c1-3,2.2-5.5,3.4-7.7c0.9-1.5,1.5-2.7,1.8-3.6c0.4-1.4,0.3-2.7-0.3-3.7
					c-0.4-0.8-0.9-1.4-1.8-1.8c-0.3-0.1-0.5-0.2-0.8-0.3c-0.5-0.1-1.1-0.2-1.8-0.3c-0.5,0.9-1.2,1.5-2.1,2c-0.8,0.5-1.6,0.7-2.5,0.7
					c-0.1,0-0.3,0-0.4-0.1c-1.1-0.1-1.9-0.5-2.4-1.4c-0.5-0.6-0.7-1.3-0.7-2c0-0.7,0.2-1.4,0.5-2c0.5-1.1,1.4-2.2,2.7-3.1
					c1.2-1,3.5-2.8,6.8-5.2c2.8-2.2,4.9-3.9,6.4-5.3c2.2-2.1,3.9-4.4,4.9-6.9c1.2-2.8,1.5-5.5,0.9-8.1c-0.3-1.6-1.1-2.7-2.2-3.3
					c-1-0.4-2.4-0.1-4.3,0.9c-2.9,1.6-7.4,4-13.4,7.2c-0.2,0.1-0.4,0.2-0.7,0.3c-0.2,0.1-0.4,0.2-0.6,0.3c-1.4,0.6-2.6,0.6-3.4-0.1
					c-1-0.7-1.3-1.8-0.9-3.2s1.3-2.6,2.5-3.5c2.8-2.4,6.6-4.8,11.5-7.2c5.5-2.5,9.7-4.5,12.4-6c10.3-5.1,16.6-11.5,18.7-19
					c0.3-1,0.3-2,0.1-2.9c-0.3-1.1-0.9-1.6-1.8-1.6c-0.8,0-1.6,0.6-2.4,1.8c-0.9,1-1.8,1.6-2.4,1.8c-1.2,0.2-1.8-0.5-1.9-2.1
					c0-1.5,0.3-2.9,1-4.2c3.2-6.3,4.7-12.7,4.5-19.3c0.1-2.3-0.5-4.1-1.8-5.1c-1.5-1-3.2-0.8-5,0.6c-1.6,1.4-2.7,3.1-3.2,5.3
					c-0.9,2.9-1.5,4.9-2,5.9c-1,2-2.4,3.1-4.1,3.4c-0.8,0.1-1.1-0.3-0.7-1.4c0.2-0.9,0.7-1.7,1.5-2.6c1.1-1.6,1-3.3-0.3-5.1
					c-1.4-1.8-3-2.6-5.1-2.6c-3.4,0.3-6.3,2.6-8.7,7c-1.1,1.8-2.4,4.6-4.1,8.4c-1.6,3.8-2.9,6.6-4,8.4c-1.7,2.9-3.6,5.3-5.9,7.2
					c-2.6,2.2-4.9,2-6.9-0.5c1.5-9.6,6.6-19.1,15.1-28.4c2-2,3.3-3.7,3.8-5.1c0.3-1,0.3-2.1,0-3.2s-0.9-1.9-1.8-2.3
					c-1-0.4-2-0.2-2.8,0.7c-1,0.8-2.2,1.3-3.4,1.7c-0.8,1-1.3,0.5-1.6-1.6c-0.1-2,0.9-4.5,3.1-7.5c1.4-2.1,2.4-3.7,3-4.9
					c1.1-1.9,1.5-3.6,1.4-5.2c-0.1-1.7-0.8-3.1-2.2-4.4c-1.4-1.2-2.9-1.7-4.6-1.6c-1.2,0.1-2.3,0.6-3.3,1.4
					c-0.7,1.3-1.4,2.6-2.2,3.8c-3.5,5.8-7.3,11.7-11.4,17.7c-0.9,1.1-1.6,2-2.2,2.5c-1,0.8-1.9,1.2-2.8,1.1c-1.1-0.1-2-0.7-2.8-1.8
					c-0.7-0.9-1.1-2-1.4-3.2c-0.3-1.9-0.3-4.3,0.1-7c0.5-3.1,0.9-5.4,1-7c0.3-2.6,0.1-5-0.6-7.1c-0.8-2.5-2.1-4.4-4.1-5.5
					c-2.4-1.5-4,0.5-4.7,6.1c-1.9-1.2-3.9-4.7-6-10.5c-1.7-4.9-4-7.4-7-7.3c-2.7,0-4.4,1.7-5.2,5.1c-0.7,3-0.4,6.3,0.9,9.9
					c1.3,3.6,2.6,7.7,3.9,12.4c1.3,4.7,0.3,5.9-2.9,3.6c-2.8-2.7-5.7-4.5-8.4-5.5C-75.1-154.6-77.3-154-78.5-151.6z"/>
			</g>
		</g>
	</g>
	<g transform="matrix( -0.825286865234375, 0.292694091796875, 0.292694091796875, 0.825286865234375, 490.5,173.2) ">
		<g>
			<g id="Layer0_0_MEMBER_5_MEMBER_2_FILL">
				<path class="st6" d="M406.1-167.8c0-0.1-0.1-0.1-0.2,0l-4.7,6.4l-2.1,4.3l-0.1,0.4l-0.2,0.4l-0.3,0.9l-0.2,0.4l-0.7,2.3
					l-0.1,0.1v0.1l-0.1,0.1l-0.1,0.3l-0.5,1.6l-0.3,0.5l-0.1,0.2c-0.1,0.2,0,0.4,0.1,0.5c0.2,0.1,0.4,0,0.5-0.1v-0.1l0.7-1.8
					l0.2-0.9l0.1-0.2v-0.1l0.8-2.7l0.2-0.5l0.4-1.3l0.2-0.4l0.1-0.5l4.2-7.3l2-2.4C406.2-167.7,406.2-167.8,406.1-167.8z"/>
			</g>
		</g>
	</g>
	<g transform="matrix( -0.825286865234375, 0.292694091796875, 0.292694091796875, 0.825286865234375, 490.5,173.2) ">
		<g>
			<g id="Layer0_0_MEMBER_5_MEMBER_3_FILL">
				<path class="st6" d="M412-163.9l-0.2,0.3l-2,5.2l-0.1,0.3c-0.1,0.3,0,0.4,0.2,0.4c0.2,0.1,0.4,0,0.4-0.2l0.1-0.3l0.1-0.3
					l2.1-5.8l0.2-0.3l0.3-0.6l0.4-0.5l0.7-0.7l0.2-0.3l0.3-0.2l0.3-0.3l0.3-0.2c0.1-0.1,0.1-0.1,0-0.2c0,0-0.1-0.1-0.2,0l-0.5,0.4
					l-0.3,0.3l-0.3,0.2l-0.3,0.3l-0.2,0.3l-0.3,0.3l-1.2,1.8L412-163.9z"/>
			</g>
		</g>
	</g>
	<g transform="matrix( -0.825286865234375, 0.292694091796875, 0.292694091796875, 0.825286865234375, 490.5,173.2) ">
		<g>
			<g id="Layer0_0_MEMBER_5_MEMBER_4_FILL">
				<path class="st6" d="M428.5-159.9c0.1,0,0.2-0.1,0.1-0.1c0-0.1,0-0.2-0.1-0.1l-3.5,1l-4.7,0.7h-0.5l-0.4,0.1l-9.3,0.1
					c0,0-0.1,0-0.2,0.1c-0.1,0.1-0.1,0.1-0.1,0.2c0,0.2,0.1,0.3,0.3,0.4l0.1-0.1l8.4-0.1l0.5-0.1h0.4l0.5-0.1h0.4l3.4-0.5l4.7-1.4
					L428.5-159.9z"/>
			</g>
		</g>
	</g>
	<g transform="matrix( -0.825286865234375, 0.292694091796875, 0.292694091796875, 0.825286865234375, 490.5,173.2) ">
		<g>
			<g id="Layer0_0_MEMBER_5_MEMBER_5_FILL">
				<path class="st6" d="M411.2-148.9l-6.8,1.6l-12.2,0.9c-0.1-0.1-0.3,0.1-0.4,0.3c0,0.2,0.1,0.3,0.3,0.3l0.9,0.1l7.9-0.6l9.1-2
					l1.2-0.4c0.1,0,0.2-0.1,0.1-0.1C411.3-149,411.3-149,411.2-148.9z"/>
			</g>
		</g>
	</g>
	<g transform="matrix( -0.825286865234375, 0.292694091796875, 0.292694091796875, 0.825286865234375, 490.5,173.2) ">
		<g>
			<g id="Layer0_0_MEMBER_5_MEMBER_18_FILL">
				<path class="st6" d="M363.4-165.3c-0.1,0-0.2,0.1-0.1,0.1l0.8,5.5l1.8,6.3l0.3,0.6v0.1h0.1v0.1l0.1,0.1l0.1,0.3l1.4,2.9
					c0.1,0.2,0.3,0.2,0.5,0.1c0.2-0.1,0.2-0.3,0.1-0.5l-0.1-0.1l-0.1-0.1L368-150l-1.2-2.6v-0.1h-0.1v-0.1l-0.3-0.6l-1.4-4.3
					l-0.3-1.5l-0.1-0.3l-1-5.5C363.5-165.3,363.5-165.4,363.4-165.3z"/>
			</g>
		</g>
	</g>
	<g transform="matrix( -0.825286865234375, 0.292694091796875, 0.292694091796875, 0.825286865234375, 490.5,173.2) ">
		<g>
			<g id="Layer0_0_MEMBER_5_MEMBER_20_FILL">
				<path class="st6" d="M393.6-122.3l-0.5,0.3l-3.9,3l-0.9,0.9l-0.2,0.3l-0.4,0.4l-0.6,0.7l-1.8,2.7l-0.7,1.4
					c-0.1,0.2,0,0.4,0.1,0.5c0.2,0.1,0.4,0.1,0.5-0.1l0.3-0.5l0.1-0.3l0.2-0.3l0.1-0.3l0.3-0.4l0.2-0.4l0.6-0.9l0.1-0.3l0.1-0.2
					l0.7-0.9l0.1-0.3l0.2-0.2l0.2-0.3l1.9-2l2.6-2.1l0.3-0.1l0.5-0.3c0.1,0,0.1-0.1,0-0.2C393.8-122.5,393.7-122.5,393.6-122.3z"/>
			</g>
		</g>
	</g>
	<g transform="matrix( -0.825286865234375, 0.292694091796875, 0.292694091796875, 0.825286865234375, 490.5,173.2) ">
		<g>
			<g id="Layer0_0_MEMBER_5_MEMBER_21_FILL">
				<path class="st6" d="M400.7-120l-0.4-0.1l-2-0.5l-0.5-0.1c-0.3-0.1-0.4,0-0.4,0.2c-0.1,0.3,0,0.4,0.2,0.4l1,0.3l3,0.5h0.5
					c0.2,0.1,0.6,0.1,1.1,0.1l3-0.1l1.6-0.3l1-0.4c0.1,0,0.2-0.1,0.1-0.1c0-0.1,0-0.2-0.1-0.1l-1,0.3l-2.4,0.4L400.7-120z"/>
			</g>
		</g>
	</g>
	<g transform="matrix( -0.825286865234375, 0.292694091796875, 0.292694091796875, 0.825286865234375, 490.5,173.2) ">
		<g>
			<g id="Layer0_0_MEMBER_5_MEMBER_22_FILL">
				<path class="st6" d="M404.6-125.7l-0.4,0.1l-5.9,3.6l-1.6,1.6c-0.1,0.2-0.1,0.3,0,0.5c0.2,0.2,0.3,0.2,0.5,0l0.3-0.3l1.8-1.8
					l5.4-3.4c0.1,0,0.2,0,0.1-0.1C404.8-125.8,404.7-125.8,404.6-125.7z"/>
			</g>
		</g>
	</g>
	<g transform="matrix( -0.686920166015625, 0.2436065673828125, 0.2436065673828125, 0.686920166015625, 447.25,173.95) ">
		<g>
			<g id="Layer0_0_MEMBER_5_MEMBER_28_FILL">
				<path class="st6" d="M405.5-116.3c0,0.2,0.1,0.3,0.3,0.4l15.8-0.2l0.1-0.2l-0.1-0.1l-15.7-0.2
					C405.6-116.6,405.5-116.5,405.5-116.3z"/>
			</g>
		</g>
	</g>
	<g transform="matrix( 0.754638671875, -0.29412841796875, 0.29412841796875, 0.754638671875, 107.25,303) ">
		<g>
			<g id="Layer0_0_MEMBER_7_FILL">
				<path class="st7" d="M107.8-34.5c2,1,3.6,1.3,4.9,0.8c0.8-0.3,1.3-1,1.7-1.9c0.3-0.9,0.2-1.6-0.3-2.2c-0.5-0.7-1.3-1-2.4-1
					c-0.5,0-1.4,0.1-2.6,0.2c-3.3-0.2-6.4-2.7-9.3-7.5c-3.7-6.2-7.3-12.6-10.6-19.2c-0.2-0.3-0.4-0.6-0.5-1c2.7,8,1,9.4-5.3,4.3
					c0.6,0.5,1.1,1.1,1.7,1.5c3.4,3.1,6.1,6,8.1,8.9c1.5,2.1,3.6,5.3,6.4,9.6C102.2-38.4,104.9-35.9,107.8-34.5z"/>
				<path class="st7" d="M17.8-218.1c-0.6,1.1-0.7,2.5-0.1,4.1c0.3,1,0.9,2.4,1.8,4.2c2.6,4.2,8.5,14.2,17.8,29.9
					c1.6,3.5-1.2,3.6-8.3,0.4c-7.2-3.2-12.3-6.4-15.3-9.6c-2-2.3-3.1-3.5-3.3-3.7c-1.3-1.4-2.7-2.3-4-2.9c-1.7-0.6-3.3-0.6-5-0.1
					c-1.8,0.7-2.8,1.8-3,3.3c-0.2,1.3,0.6,3.5,2.4,6.7c1.7,2.6,2,4.5,0.9,5.8c-0.9,1.1-2.7,1.4-5.5,0.9c-3-0.5-5.1-0.4-6.1,0.3
					c-1.7,1.2-1.9,3-0.5,5.4c1.3,2.1,3.1,3.8,5.5,4.9c7.2,3.6,12.7,6.4,16.4,8.4c1,0.4,1.9,1,2.7,1.7c0.8,0.8,1.3,1.7,1.4,2.6
					c-0.1,1.4-0.7,2.4-2,3.2c-1.3,0.7-2.7,1-4.2,0.9c-2.2-0.2-5.2-0.9-8.8-2.3c-4.1-1.5-6.9-2.4-8.7-2.7c-3.2-0.5-6.1,0.2-8.9,2.1
					c-2.8,1.9-3.9,4.2-3.1,7c0.7,2.6,4.1,5.2,10.1,8c5.4,2.4,7.9,5,7.4,7.9c0,0.4-0.3,1.3-0.9,2.7c-0.4,1.2-0.5,2.1-0.4,2.8
					c0.4,2.2,2.8,3.5,7.1,3.8c15.5,1.2,28.5,2.3,39.3,3.5c2,0.1,3.6,0.6,4.9,1.3c1.7,0.9,2.4,2,2.3,3.5c-0.2,1.1-0.8,2.1-2,2.8
					c-1,0.7-2.1,1.1-3.4,1.1c-2,0.3-4.6,0.1-7.6-0.5c-4.8-0.8-7.4-1.2-7.7-1.3c-2.9-0.3-5.5,0-7.9,0.8c-2.7,1-3,3.3-1,6.8
					C30.4-97.7,43.4-93.9,59-92.9c1.4,1,1.5,2,0.4,3c-1.1,0.9-3.3,2.5-6.6,4.9c4.2,3.4,10.6,8,19,13.7c4,2.9,7.6,5.7,10.8,8.4
					c0.3,0.3,0.6,0.5,0.9,0.7c6.2,5.2,8,3.8,5.3-4.3c0-0.3-0.1-0.5-0.1-0.7c-0.4-1-0.6-2.1-0.6-3.2c0-0.4,0-0.8,0-1.2
					c0.1-1.9,0.7-4.4,1.6-7.2c1.4-4.5,2.3-7.1,2.7-8c1-3,2.2-5.5,3.4-7.7c0.9-1.5,1.5-2.7,1.8-3.7c0.4-1.4,0.3-2.7-0.3-3.7
					c-0.4-0.8-0.9-1.4-1.8-1.8c-0.3-0.1-0.5-0.2-0.8-0.3c-0.5-0.1-1.1-0.2-1.8-0.3c-0.5,0.9-1.2,1.5-2.1,2c-0.8,0.4-1.6,0.7-2.5,0.7
					c-0.1,0-0.3-0.1-0.4-0.1c-1.1-0.1-1.9-0.5-2.4-1.3c-0.5-0.6-0.7-1.3-0.7-2c0-0.7,0.2-1.4,0.5-2c0.5-1.1,1.4-2.2,2.7-3.1
					c1.2-1,3.5-2.8,6.8-5.2c2.8-2.2,4.9-3.9,6.4-5.3c2.2-2.1,3.9-4.4,4.9-6.9c1.2-2.8,1.5-5.5,0.9-8.1c-0.3-1.6-1.1-2.7-2.2-3.3
					c-1-0.4-2.4-0.1-4.3,0.9c-2.9,1.6-7.4,4-13.4,7.2c-0.2,0.1-0.4,0.2-0.7,0.3c-0.2,0.1-0.4,0.2-0.6,0.3c-1.4,0.6-2.6,0.6-3.4-0.1
					c-1-0.7-1.3-1.8-0.9-3.2s1.3-2.6,2.5-3.5c2.8-2.4,6.6-4.9,11.5-7.2c5.5-2.5,9.7-4.5,12.4-6c10.3-5.1,16.6-11.5,18.7-19
					c0.3-1,0.3-2,0.1-2.9c-0.3-1.1-0.9-1.6-1.8-1.6c-0.8,0-1.6,0.6-2.4,1.8c-0.9,1-1.8,1.6-2.4,1.8c-1.2,0.2-1.8-0.5-1.9-2.1
					c-0.1-1.5,0.3-2.9,1-4.2c3.2-6.3,4.7-12.7,4.5-19.3c0.1-2.3-0.5-4.1-1.8-5.1c-1.5-1-3.2-0.8-5,0.6c-1.6,1.4-2.7,3.1-3.2,5.3
					c-0.9,2.9-1.5,4.9-2,5.9c-1,2-2.4,3.1-4.1,3.4c-0.8,0.1-1.1-0.3-0.7-1.4c0.2-0.9,0.7-1.7,1.5-2.6c1.1-1.6,1-3.3-0.3-5.1
					c-1.4-1.8-3-2.6-5.1-2.6c-3.4,0.3-6.3,2.6-8.7,7c-1.1,1.8-2.4,4.6-4.1,8.4c-1.6,3.8-2.9,6.6-4,8.4c-1.7,2.9-3.6,5.3-5.9,7.2
					c-2.6,2.2-4.9,2-6.9-0.5c1.5-9.6,6.6-19.1,15.1-28.4c2-2,3.3-3.7,3.8-5.1c0.3-1,0.3-2.1,0-3.2s-0.9-1.9-1.8-2.3
					c-1-0.4-2-0.2-2.8,0.7c-1,0.8-2.2,1.3-3.4,1.7c-0.8,1-1.3,0.5-1.6-1.6c-0.1-2,0.9-4.5,3.1-7.5c1.4-2.1,2.4-3.7,3-4.9
					c1.1-1.9,1.5-3.6,1.3-5.2c-0.1-1.7-0.8-3.1-2.2-4.4c-1.4-1.2-2.9-1.7-4.6-1.6c-1.2,0.1-2.3,0.6-3.3,1.4
					c-0.7,1.3-1.4,2.6-2.2,3.8c-3.5,5.8-7.3,11.7-11.4,17.7c-0.9,1.1-1.6,2-2.2,2.5c-1,0.8-1.9,1.2-2.8,1.2c-1.1-0.1-2-0.7-2.8-1.8
					c-0.7-0.9-1.1-2-1.4-3.2c-0.3-1.9-0.3-4.3,0.1-7c0.5-3.1,0.9-5.4,1-7c0.3-2.6,0.1-5-0.6-7.1c-0.8-2.5-2.1-4.4-4.1-5.5
					c-2.4-1.5-4,0.5-4.7,6.1c-1.9-1.2-3.9-4.7-6-10.5c-1.7-4.9-4-7.4-7-7.3c-2.7,0-4.4,1.7-5.2,5.1c-0.7,3-0.4,6.3,0.9,9.9
					c1.3,3.6,2.6,7.7,3.9,12.4c1.3,4.7,0.3,5.9-2.9,3.6c-2.8-2.7-5.7-4.5-8.4-5.5C21.2-221.1,19.1-220.4,17.8-218.1z"/>
			</g>
		</g>
	</g>
</g>
</svg>
