<?xml version="1.0" encoding="utf-8"?>
<!-- Generator: Adobe Illustrator 25.0.0, SVG Export Plug-In . SVG Version: 6.00 Build 0)  -->
<svg version="1.1" id="Слой_1" xmlns="http://www.w3.org/2000/svg" xmlns:xlink="http://www.w3.org/1999/xlink" x="0px" y="0px"
	 viewBox="0 0 612 792" style="enable-background:new 0 0 612 792;" xml:space="preserve">
<style type="text/css">
	.st0{fill:#9DD6E8;}
	.st1{fill:#F088A1;}
	.st2{fill:#FFFFFF;}
</style>
<path class="st0" d="M474.1,193.56H156.59c-24.6,0-44.54,19.94-44.54,44.54v317.51c0,24.6,19.94,44.54,44.54,44.54H474.1
	c24.6,0,44.54-19.94,44.54-44.54V238.1C518.65,213.5,498.7,193.56,474.1,193.56z"/>
<circle class="st1" cx="315.35" cy="396" r="38.35"/>
<path class="st2" d="M348.91,291.88c0,11.39-9.05,28.22-10.03,31.46c-4.5,14.86-9.34,26.79-23.53,26.97
	c-17.8,0.23-33.56-31.31-33.56-58.43c0-32.27,15.03-58.43,33.56-58.43S348.91,259.61,348.91,291.88z"/>
<path class="st2" d="M359.55,255.24c5.89,16.95-9.6,34.58-12.23,39.33c-5.98,10.81-9.41,9.46-14.52,20.85
	c-3.94,8.78-3.6,13.37-8.56,16.94c-5.1,3.67-13.12,4.33-18.24,0.93c-4.73-3.14-4.01-7.75-7.63-15.08
	c-5.03-10.18-11.21-10.98-18.99-19.36c-8.13-8.76-18.93-32.36-13.65-43.24c3.38-6.97,13.04-10.24,46.4-12.1
	c29.26-1.63,31.58-5.3,39.42-0.19C356.69,246.68,358.21,251.4,359.55,255.24z"/>
<path class="st2" d="M333.07,249"/>
<path class="st2" d="M426.8,381.95c-9.65,4.67-27.85,3.42-31.02,3.86c-14.55,2.03-26.77,2.57-33.1-10.13
	c-7.94-15.93,11.92-43.05,34.9-54.16c27.35-13.23,56.06-10.42,64.13,6.27C469.77,344.47,454.14,368.72,426.8,381.95z"/>
<path class="st2" d="M461.32,377.07c-12.7,12.68-35.31,6.42-40.73,6.12c-12.34-0.67-12.61-4.35-25.09-3.99
	c-9.62,0.28-13.6,2.58-18.98-0.33c-5.53-2.99-9.61-9.93-8.78-16.02c0.76-5.63,5.23-6.98,10.25-13.44
	c6.97-8.96,5.01-14.88,9.16-25.52c4.35-11.14,20.89-31.13,32.98-31.11c7.75,0.01,14.89,7.28,31.09,36.5
	c14.21,25.63,18.52,26.12,17.33,35.4C467.78,370.77,464.2,374.19,461.32,377.07z"/>
<path class="st2" d="M389.96,482.67c-9.86-5.69-19.91-21.94-22.23-24.42c-10.61-11.33-18.53-21.48-11.59-33.87
	c8.7-15.53,43.9-13.41,67.39,0.15c27.95,16.14,43.09,42.23,33.82,58.28C448.08,498.87,417.91,498.8,389.96,482.67z"/>
<path class="st2" d="M416.38,510.2c-17.63-3.38-25.15-25.6-27.95-30.25c-6.37-10.58-3.49-12.88-10.8-23
	c-5.63-7.8-9.78-9.8-10.39-15.89c-0.63-6.26,2.81-13.52,8.32-16.26c5.08-2.53,8.71,0.4,16.87,0.93c11.33,0.73,15.12-4.22,26.26-6.76
	c11.66-2.66,37.49-0.22,44.27,9.8c4.35,6.42,2.34,16.41-12.72,46.23c-13.21,26.15-11.2,29.99-19.55,34.23
	C425.22,512,420.37,510.96,416.38,510.2z"/>
<path class="st2" d="M212.11,427.63c9.86-5.69,28.96-6.27,32.26-7.04c15.12-3.53,27.87-5.31,35.13,6.89
	c9.1,15.3-10.33,44.72-33.82,58.28c-27.95,16.14-58.12,16.2-67.39,0.15S184.16,443.76,212.11,427.63z"/>
<path class="st2" d="M175.06,436.73c11.74-13.58,34.74-8.98,40.17-9.08c12.35-0.23,12.89,3.42,25.31,2.15
	c9.57-0.98,13.38-3.56,18.95-1.05c5.73,2.58,10.31,9.2,9.93,15.33c-0.35,5.67-4.7,7.34-9.24,14.15c-6.3,9.44-3.91,15.2-7.27,26.12
	c-3.52,11.43-18.56,32.57-30.62,33.44c-7.73,0.56-15.38-6.17-33.68-34.13c-16.04-24.52-20.38-24.7-19.87-34.04
	C169.08,443.49,172.4,439.81,175.06,436.73z"/>
<path class="st2" d="M241.24,314.83c8.8,7.22,16.07,24.89,17.95,27.71c8.63,12.91,14.79,24.21,5.92,35.3
	c-11.12,13.9-45.5,6.08-66.46-11.13c-24.95-20.47-35.63-48.69-23.87-63.02S216.3,294.36,241.24,314.83z"/>
<path class="st2" d="M219.67,283.36c16.84,6.2,20.64,29.35,22.64,34.4c4.56,11.48,1.34,13.27,6.9,24.45
	c4.29,8.61,8.05,11.27,7.66,17.37c-0.4,6.28-4.98,12.89-10.85,14.69c-5.43,1.67-8.53-1.82-16.5-3.67
	c-11.06-2.57-15.6,1.7-27.01,2.39c-11.93,0.73-37.02-5.9-42.08-16.88c-3.24-7.04,0.36-16.57,20.08-43.54
	c17.3-23.65,15.94-27.77,24.86-30.59C211.24,280.14,215.86,281.96,219.67,283.36z"/>
<path class="st2" d="M285.29,501.84c0-11.39,9.05-28.22,10.03-31.46c4.5-14.86,9.34-26.79,23.53-26.97
	c17.8-0.23,33.56,31.31,33.56,58.43c0,32.27-15.03,58.43-33.56,58.43C300.32,560.27,285.29,534.11,285.29,501.84z"/>
<path class="st2" d="M274.65,545.74c-5.89-16.95,9.6-34.58,12.23-39.33c5.98-10.81,9.41-9.46,14.52-20.85
	c3.94-8.78,3.6-13.37,8.56-16.94c5.1-3.67,13.12-4.33,18.24-0.93c4.73,3.14,4.01,7.75,7.63,15.08
	c5.03,10.18,11.21,10.98,18.99,19.36c8.13,8.76,18.93,32.36,13.65,43.24c-3.38,6.97-13.04,10.24-46.4,12.1
	c-29.26,1.63-31.58,5.3-39.42,0.19C277.51,554.29,275.98,549.58,274.65,545.74z"/>
</svg>
