<?xml version="1.0" encoding="utf-8"?>
<!-- Generator: Adobe Illustrator 24.3.0, SVG Export Plug-In . SVG Version: 6.00 Build 0)  -->
<svg version="1.1" id="Слой_1" xmlns="http://www.w3.org/2000/svg" xmlns:xlink="http://www.w3.org/1999/xlink" x="0px" y="0px"
	 viewBox="0 0 356 356" style="enable-background:new 0 0 356 356;" xml:space="preserve">
<style type="text/css">
	.st0{fill:#9CD3DF;}
	.st1{fill:none;stroke:#FFFFFF;stroke-width:8;stroke-miterlimit:10;}
</style>
<path class="st0" d="M317,0H39C17.5,0,0,17.5,0,39v278c0,21.5,17.5,39,39,39h278c21.5,0,39-17.5,39-39V39C356,17.5,338.5,0,317,0z"
	/>
<line class="st1" x1="179.2" y1="45.2" x2="179.2" y2="309.2"/>
<polyline class="st1" points="63.8,110.1 179.2,177.2 63.8,244.3 181.2,175.7 293.5,110.1 "/>
<line class="st1" x1="293.5" y1="244.3" x2="179.2" y2="177.2"/>
<polygon class="st1" points="179.2,129.2 219.8,107 219.8,151 257.5,178 221.4,202 218.4,244.3 179.2,227 138.4,247.4 138.4,200.7 
	98.4,178 138.3,153.4 138.3,107 "/>
<polyline class="st1" points="142,68.8 178,89.7 215.3,68.8 "/>
<polyline class="st1" points="103.3,91.9 101.7,132.2 66.9,155.4 "/>
<polyline class="st1" points="66.9,200.8 103.3,221.3 103.3,260.8 "/>
<polyline class="st1" points="142,286.1 179.2,265.7 215.3,286.1 "/>
<polyline class="st1" points="254,260.8 254,221.1 290.4,200.8 "/>
<polyline class="st1" points="254,91.9 254,133.2 290.4,155.4 "/>
</svg>
